<?xml version="1.0"?>
<svg width="456" height="456" xmlns="http://www.w3.org/2000/svg" xmlns:svg="http://www.w3.org/2000/svg" clip-rule="evenodd" fill-rule="evenodd" stroke-linejoin="round" version="1.1">
 <g class="layer">
  <title>Layer 1</title>
  <rect fill="#00b4d8" height="453" id="svg_21" stroke="#000000" width="455" x="-0.5" y="2"/>
  <g id="svg_1" transform="matrix(0.422235, 0, 0, 0.420392, 119.908096, 120.379425)">
   <path d="m307.77,17.66l0,-8.83c0,-4.88 -3.95,-8.83 -8.82,-8.83l-123.59,0c-4.87,0 -8.83,3.96 -8.83,8.83l0,8.83l-123.58,0c-9.76,0 -17.66,7.9 -17.66,17.65l0,459.04c0,9.75 7.9,17.65 17.66,17.65l388.41,0c9.76,0 17.66,-7.9 17.66,-17.65l0,-459.04c0,-9.75 -7.91,-17.65 -17.66,-17.65l-123.59,0z" fill="#6B4425" id="svg_2"/>
   <path d="m298.95,70.62l-123.59,0c-4.87,0 -8.83,-3.95 -8.83,-8.83l0,-52.96c0,-4.87 3.96,-8.83 8.83,-8.83l123.59,0c4.87,0 8.82,3.96 8.82,8.83l0,52.96c0,4.88 -3.95,8.83 -8.82,8.83" fill="#434C6D" id="svg_3"/>
   <path d="m307.77,52.97l0,8.82c0,4.88 -3.95,8.83 -8.82,8.83l-123.59,0c-4.87,0 -8.83,-3.95 -8.83,-8.83l0,-8.82l-97.1,0c-4.87,0 -8.83,3.95 -8.83,8.82l0,406.07c0,4.88 3.96,8.83 8.83,8.83l335.45,0c4.87,0 8.83,-3.95 8.83,-8.83l0,-406.07c0,-4.87 -3.96,-8.82 -8.83,-8.82l-97.11,0z" fill="#ECE8D8" id="svg_4"/>
   <g id="svg_5">
    <path d="m157.21,176.55l159.89,0l-28.07,-39.32c-2.16,-3.02 -5.67,-4.82 -9.39,-4.82l-84.98,0c-3.72,0 -7.22,1.8 -9.37,4.82l-28.08,39.32zm177.05,17.66l-194.21,0c-3.31,0 -6.33,-1.85 -7.84,-4.79c-1.52,-2.94 -1.27,-6.48 0.66,-9.17l38.05,-53.27c5.47,-7.65 14.34,-12.22 23.74,-12.22l84.98,0c9.41,0 18.28,4.57 23.75,12.22l38.05,53.27c1.92,2.69 2.18,6.23 0.66,9.17c-1.51,2.94 -4.53,4.79 -7.84,4.79l0,0z" fill="#C9B693" id="svg_6"/>
    <path d="m166.53,229.52c-9.73,0 -17.65,7.92 -17.65,17.65c0,9.74 7.92,17.66 17.65,17.66s17.66,-7.92 17.66,-17.66c0,-9.73 -7.92,-17.65 -17.66,-17.65m0,52.96c-19.47,0 -35.31,-15.83 -35.31,-35.31c0,-19.47 15.84,-35.31 35.31,-35.31s35.31,15.84 35.31,35.31c0,19.48 -15.83,35.31 -35.31,35.31" fill="#C9B693" id="svg_7"/>
    <path d="m307.77,229.52c-9.73,0 -17.65,7.92 -17.65,17.65c0,9.74 7.92,17.66 17.65,17.66c9.74,0 17.66,-7.92 17.66,-17.66c0,-9.73 -7.92,-17.65 -17.66,-17.65m0,52.96c-19.47,0 -35.31,-15.83 -35.31,-35.31c0,-19.47 15.84,-35.31 35.31,-35.31s35.31,15.84 35.31,35.31c0,19.48 -15.83,35.31 -35.31,35.31" fill="#C9B693" id="svg_8"/>
    <path d="m341.96,238.34l13.82,0c2.74,0 4.96,-2.22 4.96,-4.96l0,-34.21c0,-2.74 -2.23,-4.96 -4.96,-4.96l-237.26,0c-2.73,0 -4.95,2.22 -4.95,4.96l0,34.21c0,2.74 2.22,4.96 4.95,4.96l13.82,0c3.92,-15.21 17.77,-26.48 34.19,-26.48s30.27,11.27 34.19,26.48l72.86,0c3.92,-15.21 17.77,-26.48 34.19,-26.48s30.28,11.27 34.19,26.48m13.82,17.66l-21.52,0c-4.88,0 -8.83,-3.95 -8.83,-8.83c0,-9.73 -7.93,-17.65 -17.66,-17.65c-9.73,0 -17.65,7.92 -17.65,17.65c0,4.88 -3.95,8.83 -8.83,8.83l-88.27,0c-4.89,0 -8.83,-3.95 -8.83,-8.83c0,-9.73 -7.93,-17.65 -17.66,-17.65c-9.73,0 -17.65,7.92 -17.65,17.65c0,4.88 -3.95,8.83 -8.83,8.83l-21.53,0c-12.47,0 -22.61,-10.14 -22.61,-22.62l0,-34.21c0,-12.48 10.15,-22.62 22.61,-22.62l237.26,0c12.47,0 22.61,10.15 22.61,22.62l0,34.21c0.01,12.48 -10.14,22.62 -22.61,22.62" fill="#C9B693" id="svg_9"/>
    <path d="m237.15,344.28l-132.41,0c-4.88,0 -8.83,-3.95 -8.83,-8.83s3.95,-8.83 8.83,-8.83l132.41,0c4.89,0 8.83,3.95 8.83,8.83s-3.94,8.83 -8.83,8.83" fill="#C9B693" id="svg_10"/>
    <path d="m237.15,388.41l-132.41,0c-4.88,0 -8.83,-3.94 -8.83,-8.82s3.95,-8.83 8.83,-8.83l132.41,0c4.89,0 8.83,3.94 8.83,8.83s-3.94,8.82 -8.83,8.82" fill="#C9B693" id="svg_11"/>
    <path d="m237.15,432.55l-132.41,0c-4.88,0 -8.83,-3.94 -8.83,-8.83c0,-4.88 3.95,-8.82 8.83,-8.82l132.41,0c4.89,0 8.83,3.94 8.83,8.82c0,4.89 -3.94,8.83 -8.83,8.83" fill="#C9B693" id="svg_12"/>
    <path d="m237.15,194.21c-4.88,0 -8.82,-3.95 -8.82,-8.83l0,-61.79c0,-4.89 3.94,-8.83 8.82,-8.83s8.83,3.94 8.83,8.83l0,61.79c0,4.88 -3.94,8.83 -8.83,8.83" fill="#C9B693" id="svg_13"/>
   </g>
   <path d="m297.5,428.04l-0.07,0.07l-17.55,64.34l41.02,-41.01l-23.4,-23.4z" fill="#E7D3BA" id="svg_14"/>
   <path d="m467.43,304.91l-11.01,-11.01c-6.84,-6.84 -17.94,-6.84 -24.78,0l-31.62,31.61l23.4,23.4l44.01,-44z" fill="#D75A4A" id="svg_15"/>
   <path d="m423.42,348.91l-23.4,-23.4l-102.52,102.53l23.4,23.4l102.52,-102.53z" fill="#ED8B1B" id="svg_16"/>
   <path d="m347.37,478.04l0.07,-0.07l-26.54,-26.54l-41.02,41.02l-1.17,4.31l68.66,-18.72z" fill="#CBB7A1" id="svg_17"/>
   <path d="m449.96,375.45l31.62,-31.62c6.84,-6.84 6.84,-17.94 0,-24.78l-14.15,-14.14l-44.01,44l26.54,26.54z" fill="#8F3431" id="svg_18"/>
   <path d="m320.9,451.43l26.54,26.54l102.52,-102.52l-26.54,-26.54l-102.52,102.52z" fill="#D7791D" id="svg_19"/>
   <path d="m272.46,511.83c-2.26,0 -4.52,-0.86 -6.24,-2.58c-3.45,-3.45 -3.45,-9.03 0,-12.49l19.49,-19.48c3.45,-3.45 9.03,-3.45 12.48,0c3.45,3.46 3.45,9.03 0,12.48l-19.48,19.49c-1.73,1.72 -3.99,2.58 -6.25,2.58" fill="#4C4C4C" id="svg_20"/>
  </g>
 </g>
</svg>